#Comment line ignore any data following # character 
#Hierarchical Translation and Rotation (.htr) file 
[Header]	
#Header keywords are followed by a single value 
FileType HTR		#Single word string
DataType HTRS		#Translation followed by rotation and scale data
FileVersion 1		#integer
NumSegments 64		#integer
NumFrames 3		#integer
DataFrameRate 30		#integer, data frame rate in this file
EulerRotationOrder ZYX
CalibrationUnits mm
RotationUnits Degrees
GlobalAxisofGravity Y
BoneLengthAxis Y
ScaleFactor 1.00
[SegmentNames&Hierarchy]
#CHILD	PARENT
Pinger_Root GLOBAL
Pelvis Pinger_Root
L_Hip Pelvis
R_Hip Pelvis
Rear_Leg01 Pelvis
Spine1 Pelvis
L_Leg01 L_Hip
L_Leg02 L_Leg01
L_Leg03 L_Leg02
L_Foot L_Leg03
L_Toe1_01 L_Foot
L_Toe2_01 L_Foot
L_Toe3_01 L_Foot
planeAlignerLeft L_Foot
L_Toe1_02 L_Toe1_01
L_Toe1_03 L_Toe1_02
L_Toe2_02 L_Toe2_01
L_Toe2_03 L_Toe2_02
L_Toe3_02 L_Toe3_01
L_Toe3_03 L_Toe3_02
planeLockWeightLeft planeAlignerLeft
R_Leg01 R_Hip
R_Leg02 R_Leg01
R_Leg03 R_Leg02
R_Foot R_Leg03
planeAlignerRight R_Foot
R_Toe1_01 R_Foot
R_Toe2_01 R_Foot
R_Toe3_01 R_Foot
planeLockWeightRight planeAlignerRight
R_Toe1_02 R_Toe1_01
R_Toe1_03 R_Toe1_02
R_Toe2_02 R_Toe2_01
R_Toe2_03 R_Toe2_02
R_Toe3_02 R_Toe3_01
R_Toe3_03 R_Toe3_02
Rear_Leg02 Rear_Leg01
Rear_Leg03 Rear_Leg02
Rear_Leg04 Rear_Leg03
Rear_Foot Rear_Leg04
planeAlignerCenter Rear_Foot
Rear_Toe1_01 Rear_Foot
Rear_Toe2_01 Rear_Foot
Rear_Toe3_01 Rear_Foot
planeLockWeightCenter planeAlignerCenter
Rear_Toe1_02 Rear_Toe1_01
Rear_Toe1_03 Rear_Toe1_02
Rear_Toe2_02 Rear_Toe2_01
Rear_Toe2_03 Rear_Toe2_02
Rear_Toe3_02 Rear_Toe3_01
Rear_Toe3_03 Rear_Toe3_02
Back_Bone Spine1
Head Spine1
Motor_Bone Back_Bone
Ping_Mechanism Back_Bone
BN_LookIK Head
bottomMouth Head
L_Mouth01 Head
L_mouthFront Head
mouthGun Head
R_Mouth01 Head
R_mouthFront Head
TopMouth Head
weapon_bone Head
[BasePosition]
#SegmentName Tx, Ty, Tz, Rx, Ry, Rz, BoneLength
Pinger_Root 0.000000 0.000000 0.000000 -90.000000 0.000000 0.000000 10.000000 
Pelvis 0.000000 0.000000 0.000000 0.000000 0.000000 0.000000 10.000000 
L_Hip 0.000000 0.000000 0.000000 0.000000 0.000000 0.000000 10.000000 
R_Hip 0.000000 0.000000 0.000000 0.000000 0.000000 0.000000 10.000000 
Rear_Leg01 0.000000 0.000000 0.000000 0.000000 0.000000 0.000000 10.000000 
Spine1 0.000000 0.000000 0.000000 0.000000 0.000000 0.000000 10.000000 
L_Leg01 0.000000 0.000000 0.000000 0.000000 0.000000 0.000000 10.000000 
L_Leg02 0.000000 0.000000 0.000000 0.000000 0.000000 0.000000 10.000000 
L_Leg03 0.000000 0.000000 0.000000 0.000000 0.000000 0.000000 10.000000 
L_Foot 0.000000 0.000000 0.000000 0.000000 0.000000 0.000000 10.000000 
L_Toe1_01 0.000000 0.000000 0.000000 0.000000 0.000000 0.000000 10.000000 
L_Toe2_01 0.000000 0.000000 0.000000 0.000000 0.000000 0.000000 10.000000 
L_Toe3_01 0.000000 0.000000 0.000000 0.000000 0.000000 0.000000 10.000000 
planeAlignerLeft 0.000000 0.000000 0.000000 0.000000 0.000000 0.000000 10.000000 
L_Toe1_02 0.000000 0.000000 0.000000 0.000000 0.000000 0.000000 10.000000 
L_Toe1_03 0.000000 0.000000 0.000000 0.000000 0.000000 0.000000 10.000000 
L_Toe2_02 0.000000 0.000000 0.000000 0.000000 0.000000 0.000000 10.000000 
L_Toe2_03 0.000000 0.000000 0.000000 0.000000 0.000000 0.000000 10.000000 
L_Toe3_02 0.000000 0.000000 0.000000 0.000000 0.000000 0.000000 10.000000 
L_Toe3_03 0.000000 0.000000 0.000000 0.000000 0.000000 0.000000 10.000000 
planeLockWeightLeft 0.000000 0.000000 0.000000 0.000000 0.000000 0.000000 10.000000 
R_Leg01 0.000000 0.000000 0.000000 0.000000 0.000000 0.000000 10.000000 
R_Leg02 0.000000 0.000000 0.000000 0.000000 0.000000 0.000000 10.000000 
R_Leg03 0.000000 0.000000 0.000000 0.000000 0.000000 0.000000 10.000000 
R_Foot 0.000000 0.000000 0.000000 0.000000 0.000000 0.000000 10.000000 
planeAlignerRight 0.000000 0.000000 0.000000 0.000000 0.000000 0.000000 10.000000 
R_Toe1_01 0.000000 0.000000 0.000000 0.000000 0.000000 0.000000 10.000000 
R_Toe2_01 0.000000 0.000000 0.000000 0.000000 0.000000 0.000000 10.000000 
R_Toe3_01 0.000000 0.000000 0.000000 0.000000 0.000000 0.000000 10.000000 
planeLockWeightRight 0.000000 0.000000 0.000000 0.000000 0.000000 0.000000 10.000000 
R_Toe1_02 0.000000 0.000000 0.000000 0.000000 0.000000 0.000000 10.000000 
R_Toe1_03 0.000000 0.000000 0.000000 0.000000 0.000000 0.000000 10.000000 
R_Toe2_02 0.000000 0.000000 0.000000 0.000000 0.000000 0.000000 10.000000 
R_Toe2_03 0.000000 0.000000 0.000000 0.000000 0.000000 0.000000 10.000000 
R_Toe3_02 0.000000 0.000000 0.000000 0.000000 0.000000 0.000000 10.000000 
R_Toe3_03 0.000000 0.000000 0.000000 0.000000 0.000000 0.000000 10.000000 
Rear_Leg02 0.000000 0.000000 0.000000 0.000000 0.000000 0.000000 10.000000 
Rear_Leg03 0.000000 0.000000 0.000000 0.000000 0.000000 0.000000 10.000000 
Rear_Leg04 0.000000 0.000000 0.000000 0.000000 0.000000 0.000000 10.000000 
Rear_Foot 0.000000 0.000000 0.000000 0.000000 0.000000 0.000000 10.000000 
planeAlignerCenter 0.000000 0.000000 0.000000 0.000000 0.000000 0.000000 10.000000 
Rear_Toe1_01 0.000000 0.000000 0.000000 0.000000 0.000000 0.000000 10.000000 
Rear_Toe2_01 0.000000 0.000000 0.000000 0.000000 0.000000 0.000000 10.000000 
Rear_Toe3_01 0.000000 0.000000 0.000000 0.000000 0.000000 0.000000 10.000000 
planeLockWeightCenter 0.000000 0.000000 0.000000 0.000000 0.000000 0.000000 10.000000 
Rear_Toe1_02 0.000000 0.000000 0.000000 0.000000 0.000000 0.000000 10.000000 
Rear_Toe1_03 0.000000 0.000000 0.000000 0.000000 0.000000 0.000000 10.000000 
Rear_Toe2_02 0.000000 0.000000 0.000000 0.000000 0.000000 0.000000 10.000000 
Rear_Toe2_03 0.000000 0.000000 0.000000 0.000000 0.000000 0.000000 10.000000 
Rear_Toe3_02 0.000000 0.000000 0.000000 0.000000 0.000000 0.000000 10.000000 
Rear_Toe3_03 0.000000 0.000000 0.000000 0.000000 0.000000 0.000000 10.000000 
Back_Bone 0.000000 0.000000 0.000000 0.000000 0.000000 0.000000 10.000000 
Head 0.000000 0.000000 0.000000 0.000000 0.000000 0.000000 10.000000 
Motor_Bone 0.000000 0.000000 0.000000 0.000000 0.000000 0.000000 10.000000 
Ping_Mechanism 0.000000 0.000000 0.000000 0.000000 0.000000 0.000000 10.000000 
BN_LookIK 0.000000 0.000000 0.000000 0.000000 0.000000 0.000000 10.000000 
bottomMouth 0.000000 0.000000 0.000000 0.000000 0.000000 0.000000 10.000000 
L_Mouth01 0.000000 0.000000 0.000000 0.000000 0.000000 0.000000 10.000000 
L_mouthFront 0.000000 0.000000 0.000000 0.000000 0.000000 0.000000 10.000000 
mouthGun 0.000000 0.000000 0.000000 0.000000 0.000000 0.000000 10.000000 
R_Mouth01 0.000000 0.000000 0.000000 0.000000 0.000000 0.000000 10.000000 
R_mouthFront 0.000000 0.000000 0.000000 0.000000 0.000000 0.000000 10.000000 
TopMouth 0.000000 0.000000 0.000000 0.000000 0.000000 0.000000 10.000000 
weapon_bone 0.000000 0.000000 0.000000 0.000000 0.000000 0.000000 10.000000 
#Beginning of Data. Separated by tabs
#Fr	Tx	Ty	Tz	Rx	Ry	Rz	SF
[Pinger_Root]
41 0.000000 0.000000 0.000000 -0.000075 -0.000000 -0.000020 0.000000
42 0.000000 0.000000 0.000000 -0.000075 -0.000000 -0.000020 0.000000
43 0.000000 0.000000 0.000000 -0.000075 -0.000000 -0.000020 0.000000
[Pelvis]
41 2420.718262 171.733963 3202.668945 -101.635788 -75.390511 95.820503 4018.265625
42 2426.649658 174.001205 3203.174072 -101.659782 -75.117180 95.816200 4022.341309
43 2431.179932 176.032410 3201.343994 -101.683388 -74.843811 95.811493 4023.708252
[L_Hip]
41 5.766392 125.831482 872.656799 160.158691 -45.484913 122.312202 881.701050
42 5.766392 125.831482 872.656799 160.158691 -45.484894 122.312202 881.701050
43 5.766392 125.831482 872.656799 160.158691 -45.484894 122.312202 881.701050
[R_Hip]
41 5.765438 125.836372 -872.654907 38.087841 49.812687 125.703735 881.699829
42 5.765438 125.836372 -872.654907 38.087830 49.812672 125.703735 881.699829
43 5.765438 125.836372 -872.654907 38.087830 49.812672 125.703735 881.699829
[Rear_Leg01]
41 -192.298416 -925.602966 -0.001907 -179.939835 -16.098700 -162.242172 945.367432
42 -192.298416 -925.602966 -0.001907 179.997559 -16.201689 -162.519104 945.367432
43 -192.298416 -925.602966 -0.001907 179.935455 -16.304968 -162.796082 945.367432
[Spine1]
41 290.604584 5.007505 0.000477 -19.482258 36.280529 -2.490428 290.647736
42 290.604584 5.007505 0.000477 -19.651171 36.617088 -2.879914 290.647736
43 290.604584 5.007505 0.000477 -19.823685 36.952698 -3.272341 290.647736
[L_Leg01]
41 761.932007 -0.002384 -0.069261 27.332190 -15.345774 26.132551 761.932068
42 761.932007 -0.002384 -0.069261 26.948215 -15.091064 26.445030 761.932068
43 761.932007 -0.002384 -0.069261 26.566145 -14.834341 26.755362 761.932068
[L_Leg02]
41 1441.140503 -0.000954 -0.000715 1.741151 -0.157203 -120.831444 1441.140503
42 1441.140503 -0.000954 -0.000715 1.713473 -0.154179 -120.567101 1441.140503
43 1441.140503 -0.000954 -0.000715 1.721235 -0.154683 -120.635391 1441.140503
[L_Leg03]
41 1686.963989 -0.000715 -0.000954 -0.027488 0.010237 117.160873 1686.963989
42 1686.963989 -0.000715 -0.000954 -0.027491 0.010230 117.128426 1686.963989
43 1686.963989 -0.000715 -0.000954 -0.027493 0.010222 117.095985 1686.963989
[L_Foot]
41 3041.570068 -30.715107 11.297464 -20.476667 17.170610 19.066713 3041.746094
42 3041.570068 -30.715107 11.297464 -20.360933 16.928499 19.095987 3041.746094
43 3041.570068 -30.715107 11.297464 -20.245470 16.686329 19.124716 3041.746094
[L_Toe1_01]
41 -188.216690 -224.732346 -21.137953 93.600281 -6.831990 -170.637314 293.899567
42 -188.216690 -224.732346 -21.137953 93.600105 -6.832495 -170.633804 293.899567
43 -188.216690 -224.732346 -21.137953 93.599953 -6.833000 -170.630295 293.899567
[L_Toe2_01]
41 200.746536 -219.926590 148.838394 -89.584671 -25.983229 -53.956738 332.896027
42 200.746536 -219.926590 148.838394 -89.583794 -25.983173 -53.958118 332.896027
43 200.746536 -219.926590 148.838394 -89.582909 -25.983118 -53.959507 332.896027
[L_Toe3_01]
41 188.832520 -219.859131 -191.078659 -99.996552 13.548152 -69.142006 347.140900
42 188.832520 -219.859131 -191.078659 -99.996986 13.546865 -69.145180 347.140900
43 188.832520 -219.859131 -191.078659 -99.997444 13.545585 -69.148369 347.140900
[planeAlignerLeft]
41 0.812531 -811.448792 -0.314951 0.000000 -90.000000 -90.001900 811.449280
42 0.812531 -811.448792 -0.314951 0.000000 -90.000000 -90.001900 811.449280
43 0.812531 -811.448792 -0.314951 0.000000 -90.000000 -90.001900 811.449280
[L_Toe1_02]
41 413.761139 0.000477 0.000000 0.001384 -25.951817 0.001384 413.761139
42 413.761139 0.000477 0.000000 0.001384 -25.949064 0.001384 413.761139
43 413.761139 0.000477 0.000000 0.001384 -25.946316 0.001384 413.761139
[L_Toe1_03]
41 464.317322 0.000358 -0.000089 0.003577 51.697231 0.003577 464.317322
42 464.317322 0.000358 -0.000089 0.003577 51.692650 0.003577 464.317322
43 464.317322 0.000358 -0.000089 0.003577 51.688091 0.003577 464.317322
[L_Toe2_02]
41 342.235809 -0.000477 0.000238 0.001189 -71.837486 0.001189 342.235809
42 342.235809 -0.000477 0.000238 0.001189 -71.833733 0.001189 342.235809
43 342.235809 -0.000477 0.000238 0.001189 -71.830009 0.001189 342.235809
[L_Toe2_03]
41 420.210846 -0.000715 0.000000 0.022691 84.070343 0.022691 420.210846
42 420.210846 -0.000715 0.000000 0.022683 84.068359 0.022683 420.210846
43 420.210846 -0.000715 0.000000 0.022675 84.066338 0.022675 420.210846
[L_Toe3_02]
41 329.270111 0.000954 0.000000 0.001178 -79.981491 0.001178 329.270111
42 329.270111 0.000954 0.000000 0.001178 -79.975952 0.001178 329.270111
43 329.270111 0.000954 0.000000 0.001178 -79.970459 0.001178 329.270111
[L_Toe3_03]
41 439.137451 -0.001907 0.000954 -179.994659 80.724602 -179.991135 439.137451
42 439.137451 -0.001907 0.000954 -179.994659 80.724602 -179.991135 439.137451
43 439.137451 -0.001907 0.000954 -179.994659 80.724602 -179.991135 439.137451
[planeLockWeightLeft]
41 -0.000954 0.000238 -0.000305 -0.011826 -0.004376 0.005620 0.001029
42 -0.000954 0.000238 -0.000305 -0.011826 -0.004376 0.005620 0.001029
43 -0.000954 0.000238 -0.000305 -0.011826 -0.004376 0.005620 0.001029
[R_Leg01]
41 761.455627 -0.001907 -0.000358 95.689117 -39.573593 27.682783 761.455688
42 761.455627 -0.001907 -0.000358 96.003181 -39.889133 27.492252 761.455688
43 761.455627 -0.001907 -0.000358 96.065636 -40.347706 27.375372 761.455688
[R_Leg02]
41 1441.140625 0.000000 -0.000238 -3.543518 -1.604360 167.348770 1441.140625
42 1441.140625 0.000000 -0.000238 -3.548053 -1.604656 167.151276 1441.140625
43 1441.140625 0.000000 -0.000238 -3.552585 -1.604968 166.953766 1441.140625
[R_Leg03]
41 1686.963989 0.000954 0.001431 0.115249 -0.072133 142.274796 1686.963989
42 1686.963989 0.000954 0.001431 0.115250 -0.072133 142.274429 1686.963989
43 1686.963989 0.000954 0.001431 0.115250 -0.072133 142.274063 1686.963989
[R_Foot]
41 3041.560059 -30.531288 -11.204481 26.904057 -62.971264 68.421059 3041.734131
42 3041.560059 -30.531288 -11.204481 26.770140 -62.975689 68.571709 3041.734131
43 3041.560059 -30.531288 -11.204481 26.636168 -62.979919 68.722359 3041.734131
[planeAlignerRight]
41 -0.635147 -812.270569 -0.364304 0.000000 -89.960434 -90.005180 812.270874
42 -0.635147 -812.270569 -0.364304 0.000000 -89.960434 -90.005180 812.270874
43 -0.635147 -812.270569 -0.364304 0.000000 -89.960434 -90.005180 812.270874
[R_Toe1_01]
41 -188.383347 -224.864899 21.052242 76.000755 11.377672 -179.274673 294.101532
42 -188.383347 -224.864899 21.052242 76.000961 11.369246 -179.275986 294.101532
43 -188.383347 -224.864899 21.052242 76.001167 11.360820 -179.277298 294.101532
[R_Toe2_01]
41 200.637817 -220.002121 -148.787384 -94.846947 46.882397 -55.711636 332.857574
42 200.637817 -220.002121 -148.787384 -94.843292 46.876053 -55.710415 332.857574
43 200.637817 -220.002121 -148.787384 -94.839661 46.869717 -55.709206 332.857574
[R_Toe3_01]
41 188.606735 -220.092957 191.126343 -77.269165 1.151656 -59.092579 347.192566
42 188.606735 -220.092957 191.126343 -77.268814 1.150572 -59.093166 347.192566
43 188.606735 -220.092957 191.126343 -77.268463 1.149492 -59.093746 347.192566
[planeLockWeightRight]
41 -0.000477 0.000000 0.000000 -0.011823 -0.004379 -0.000027 0.000477
42 -0.000477 0.000000 0.000000 -0.011823 -0.004379 -0.000027 0.000477
43 -0.000477 0.000000 0.000000 -0.011823 -0.004379 -0.000027 0.000477
[R_Toe1_02]
41 413.762085 0.000477 -0.000119 0.001387 -25.589918 0.001387 413.762085
42 413.762085 0.000477 -0.000119 0.001387 -25.602917 0.001387 413.762085
43 413.762085 0.000477 -0.000119 0.001387 -25.615908 0.001387 413.762085
[R_Toe1_03]
41 464.317810 0.000000 0.001088 0.004935 62.484688 0.004935 464.317810
42 464.317810 0.000000 0.001088 0.004934 62.478897 0.004934 464.317810
43 464.317810 0.000000 0.001088 0.004933 62.473125 0.004933 464.317810
[R_Toe2_02]
41 342.234741 -0.000954 0.000238 0.001209 -62.059044 0.001209 342.234741
42 342.234741 -0.000954 0.000238 0.001209 -62.053268 0.001209 342.234741
43 342.234741 -0.000954 0.000238 0.001209 -62.047489 0.001209 342.234741
[R_Toe2_03]
41 420.210846 0.000715 -0.000268 -0.004369 64.205688 -0.000781 420.210846
42 420.210846 0.000715 -0.000268 -0.004372 64.239868 -0.000785 420.210846
43 420.210846 0.000715 -0.000268 -0.004359 64.099876 -0.000771 420.210846
[R_Toe3_02]
41 329.270355 -0.000477 -0.000954 0.001176 -83.365669 0.001176 329.270355
42 329.270355 -0.000477 -0.000954 0.001176 -83.373123 0.001176 329.270355
43 329.270355 -0.000477 -0.000954 0.001176 -83.380379 0.001176 329.270355
[R_Toe3_03]
41 439.137939 0.000238 0.001431 -179.999252 63.862644 -179.995667 439.137939
42 439.137939 0.000238 0.001431 -179.999252 63.870411 -179.995667 439.137939
43 439.137939 0.000238 0.001431 -179.999252 63.878189 -179.995667 439.137939
[Rear_Leg02]
41 1162.777710 -0.029802 0.005960 2.442554 -1.651659 -169.071732 1162.777710
42 1162.777710 -0.029802 0.005960 2.434462 -1.666057 -168.731369 1162.777710
43 1162.777710 -0.029802 0.005960 2.426284 -1.680407 -168.390991 1162.777710
[Rear_Leg03]
41 607.192505 -0.013351 -0.073195 0.010052 -0.005925 77.383904 607.192505
42 607.192505 -0.013351 -0.073195 0.010056 -0.005919 77.320633 607.192505
43 607.192505 -0.013351 -0.073195 0.010059 -0.005914 77.257355 607.192505
[Rear_Leg04]
41 995.874512 -0.020504 -0.011921 -0.043284 -0.017065 91.123863 995.874573
42 995.874512 -0.020504 -0.011921 -0.043225 -0.017214 90.727394 995.874573
43 995.874512 -0.020504 -0.011921 -0.043204 -0.017267 90.586304 995.874573
[Rear_Foot]
41 3096.176270 -0.067472 -0.041425 -170.375992 76.925835 30.303541 3096.176270
42 3096.176270 -0.067472 -0.041425 -170.429642 76.839096 30.170622 3096.176270
43 3096.176270 -0.067472 -0.041425 -170.482056 76.752266 30.038881 3096.176270
[planeAlignerCenter]
41 0.350077 0.966311 -838.790894 0.000009 0.000003 -179.999985 838.791565
42 0.350077 0.966311 -838.790894 0.000009 0.000003 -179.999985 838.791565
43 0.350077 0.966311 -838.790894 0.000009 0.000003 -179.999985 838.791565
[Rear_Toe1_01]
41 0.653352 83.966492 -371.173737 0.293897 41.911781 90.408806 380.553192
42 0.653352 83.966492 -371.173737 0.293903 41.911720 90.408821 380.553192
43 0.653352 83.966492 -371.173737 0.293917 41.911663 90.408859 380.553192
[Rear_Toe2_01]
41 178.200760 -294.826019 -362.060547 -7.197685 34.405376 -66.271545 499.765686
42 178.200760 -294.826019 -362.060547 -7.197723 34.405365 -66.271561 499.765686
43 178.200760 -294.826019 -362.060547 -7.197759 34.405342 -66.271568 499.765686
[Rear_Toe3_01]
41 -153.359680 -308.780914 -362.060852 3.289717 33.515774 -112.541382 499.952881
42 -153.359680 -308.780914 -362.060852 3.289728 33.515724 -112.541397 499.952881
43 -153.359680 -308.780914 -362.060852 3.289737 33.515671 -112.541405 499.952881
[planeLockWeightCenter]
41 -0.000062 0.000238 0.000000 -0.011814 -0.004373 -0.000015 0.000246
42 -0.000062 0.000238 0.000000 -0.011814 -0.004373 -0.000015 0.000246
43 -0.000062 0.000238 0.000000 -0.011814 -0.004373 -0.000015 0.000246
[Rear_Toe1_02]
41 379.707825 0.194073 0.000477 -0.000242 -31.678349 0.006934 379.707855
42 379.707825 0.194073 0.000477 -0.000242 -31.678387 0.006934 379.707855
43 379.707825 0.194073 0.000477 -0.000242 -31.678431 0.006934 379.707855
[Rear_Toe1_03]
41 500.129700 0.165701 0.000119 -0.000103 51.907639 0.007296 500.129761
42 500.129700 0.165701 0.000119 -0.000103 51.907768 0.007296 500.129761
43 500.129700 0.165701 0.000119 -0.000103 51.907894 0.007296 500.129761
[Rear_Toe2_02]
41 340.494507 0.000238 -0.000954 0.001192 -69.856430 0.001192 340.494507
42 340.494507 0.000238 -0.000954 0.001192 -69.856453 0.001192 340.494507
43 340.494507 0.000238 -0.000954 0.001192 -69.856514 0.001192 340.494507
[Rear_Toe2_03]
41 433.103577 0.000000 0.000238 0.006696 69.812195 0.006696 433.103546
42 433.103577 0.000000 0.000238 0.006696 69.812241 0.006696 433.103546
43 433.103577 0.000000 0.000238 0.006696 69.812309 0.006696 433.103546
[Rear_Toe3_02]
41 340.494141 -0.000358 -0.000477 0.008289 -67.276558 -0.009461 340.494171
42 340.494141 -0.000358 -0.000477 0.008289 -67.276588 -0.009461 340.494171
43 340.494141 -0.000358 -0.000477 0.008289 -67.276657 -0.009461 340.494171
[Rear_Toe3_03]
41 433.103577 0.001431 -0.000238 -0.000972 65.958961 -0.004547 433.103546
42 433.103577 0.001431 -0.000238 -0.000972 65.958977 -0.004547 433.103546
43 433.103577 0.001431 -0.000238 -0.000972 65.958984 -0.004547 433.103546
[Back_Bone]
41 1312.175781 -701.934692 0.000954 0.000023 -0.000007 -85.606667 1488.125488
42 1312.175781 -701.934692 0.000954 0.000023 -0.000007 -85.606667 1488.125488
43 1312.175781 -701.934692 0.000954 0.000023 -0.000007 -85.606667 1488.125488
[Head]
41 1406.159424 809.709290 0.001431 0.001183 -0.009521 17.910183 1622.625488
42 1406.159424 809.709290 0.001431 0.001189 -0.461139 17.891573 1622.625488
43 1406.159424 809.709290 0.001431 0.001343 -0.912763 17.872969 1622.625488
[Motor_Bone]
41 1158.364380 -417.834747 0.000477 -5.537762 7.159109 -103.017433 1231.419434
42 1158.364380 -417.834747 0.000477 -5.281466 6.455432 -103.227539 1231.419434
43 1158.364380 -417.834747 0.000477 -5.325607 5.425385 -103.431725 1231.419434
[Ping_Mechanism]
41 1233.749634 -432.921600 -8.463593 0.000103 -0.000053 82.120995 1307.528564
42 1233.774292 -432.963562 -8.411681 0.000103 -0.000053 82.120995 1307.565430
43 1233.798828 -433.005524 -8.359771 0.000103 -0.000053 82.120995 1307.602051
[BN_LookIK]
41 193.241119 1380.371704 -0.002861 0.000000 89.965736 -31.038179 1393.832153
42 193.241119 1380.371704 -0.002861 0.000000 89.965736 -31.038179 1393.832153
43 193.241119 1380.371704 -0.002861 0.000000 89.965736 -31.038179 1393.832153
[bottomMouth]
41 -435.092926 615.759399 -0.000954 -0.000022 0.000016 73.527184 753.966492
42 -435.092926 615.759399 -0.000954 -0.000022 0.000016 73.527184 753.966492
43 -435.092926 615.759399 -0.000954 -0.000022 0.000016 73.527184 753.966492
[L_Mouth01]
41 554.440979 7.658243 838.222046 150.204178 23.759130 109.605339 1005.027161
42 554.440979 7.658243 838.222046 150.204178 23.759130 109.605339 1005.027161
43 554.440979 7.658243 838.222046 150.204178 23.759130 109.605339 1005.027161
[L_mouthFront]
41 551.629089 934.514771 339.150421 0.000081 2.804060 79.119301 1136.941284
42 551.629089 934.514771 339.150421 0.000081 2.804060 79.119301 1136.941284
43 551.629089 934.514771 339.150421 0.000081 2.804060 79.119301 1136.941284
[mouthGun]
41 55.332661 1627.420898 0.000000 0.000023 0.000009 -11.038128 1628.361328
42 55.332661 1627.420898 0.000000 0.000023 0.000009 -11.038128 1628.361328
43 55.332661 1627.420898 0.000000 0.000023 0.000009 -11.038128 1628.361328
[R_Mouth01]
41 554.442383 7.659197 -838.223938 29.795891 -23.759109 109.605331 1005.029541
42 554.442383 7.659197 -838.223938 29.795891 -23.759109 109.605331 1005.029541
43 554.442383 7.659197 -838.223938 29.795891 -23.759109 109.605331 1005.029541
[R_mouthFront]
41 551.629089 934.514282 -339.151367 0.000029 -2.803930 79.119133 1136.941162
42 551.629089 934.514282 -339.151367 0.000029 -2.803930 79.119133 1136.941162
43 551.629089 934.514282 -339.151367 0.000029 -2.803930 79.119133 1136.941162
[TopMouth]
41 461.269867 -56.106091 -0.008583 -0.000059 -0.000268 92.025169 464.669525
42 461.269867 -56.106091 -0.008583 -0.000059 -0.000268 92.025169 464.669525
43 461.269867 -56.106091 -0.008583 -0.000059 -0.000268 92.025169 464.669525
[weapon_bone]
41 -987.239868 1448.372803 0.001431 0.000000 89.965736 -31.038221 1752.833740
42 -987.239868 1448.372803 0.001431 0.000000 89.965736 -31.038221 1752.833740
43 -987.239868 1448.372803 0.001431 0.000000 89.965736 -31.038221 1752.833740
